<?xml version="1.0" standalone="no"?>
<!DOCTYPE svg PUBLIC "-//W3C//DTD SVG 20010904//EN"
 "http://www.w3.org/TR/2001/REC-SVG-20010904/DTD/svg10.dtd">
<svg version="1.0" xmlns="http://www.w3.org/2000/svg"
 width="980.000000pt" height="980.000000pt" viewBox="0 0 980.000000 980.000000"
 preserveAspectRatio="xMidYMid meet">
<metadata>
Created by potrace 1.15, written by Peter Selinger 2001-2017
</metadata>
<g transform="translate(0.000000,980.000000) scale(0.100000,-0.100000)"
fill="#000000" stroke="none">
<path d="M4464 9790 c-468 -40 -1036 -183 -1483 -374 -1205 -516 -2177 -1514
-2646 -2716 -136 -348 -247 -766 -299 -1130 -46 -320 -47 -941 -1 -1305 139
-1100 700 -2189 1517 -2945 354 -329 698 -566 1143 -790 579 -292 1087 -439
1745 -506 204 -21 705 -24 895 -6 640 62 1167 214 1760 507 335 166 623 351
900 580 153 127 566 537 684 680 297 359 508 709 734 1220 186 420 306 891
363 1420 25 228 25 729 1 955 -67 612 -221 1144 -487 1685 -267 542 -545 925
-981 1350 -540 527 -1137 893 -1844 1133 -344 117 -773 208 -1090 232 -188 14
-785 21 -911 10z m906 -405 c818 -86 1577 -386 2233 -883 432 -326 847 -776
1113 -1205 268 -432 502 -1011 594 -1467 138 -686 115 -1484 -61 -2109 -140
-495 -386 -1019 -661 -1404 -373 -523 -878 -991 -1386 -1285 -591 -343 -1152
-534 -1782 -608 -299 -35 -804 -29 -1135 12 -830 104 -1696 497 -2335 1059
-132 116 -411 401 -512 522 -547 657 -882 1407 -1008 2259 -44 301 -47 900 -5
1219 64 489 214 971 441 1425 221 440 480 796 844 1161 802 804 1789 1249
2935 1323 124 8 585 -4 725 -19z"/>
<path d="M2204 7355 c-305 -78 -537 -284 -662 -585 -105 -255 -93 -579 32
-834 83 -170 258 -354 413 -434 101 -51 208 -90 275 -97 106 -12 101 -9 95
-73 -3 -31 -39 -163 -82 -292 -137 -423 -159 -535 -159 -830 0 -271 26 -428
98 -605 45 -110 95 -184 191 -280 277 -276 784 -556 1320 -728 414 -133 639
-172 1050 -183 459 -13 764 25 1160 143 535 159 1022 402 1347 672 132 109
207 202 273 336 84 171 113 311 122 580 10 308 -13 433 -161 899 -48 148 -89
286 -92 306 -7 42 -9 41 96 55 167 23 369 132 511 274 365 368 396 936 73
1339 -120 151 -267 257 -430 311 -274 91 -573 58 -797 -89 -123 -82 -259 -219
-353 -358 -1 -2 -43 25 -92 61 -207 148 -476 255 -812 321 -451 90 -1108 85
-1510 -10 -230 -54 -381 -119 -648 -277 -90 -53 -168 -97 -175 -97 -7 1 -79
63 -161 140 -215 201 -365 298 -532 340 -111 29 -270 27 -390 -5z m2931 -190
c345 -6 513 -31 775 -116 341 -111 687 -369 930 -694 131 -176 181 -290 369
-850 233 -697 305 -950 322 -1133 25 -279 -24 -604 -119 -787 -196 -375 -1229
-889 -2012 -1001 -146 -21 -661 -30 -860 -15 -566 43 -1318 324 -1827 683 -49
33 -135 109 -194 167 -91 92 -111 118 -152 201 -83 169 -113 360 -104 663 7
260 36 376 272 1077 258 765 291 838 481 1075 134 168 319 332 494 437 339
205 792 314 1250 301 58 -1 227 -5 375 -8z m-2612 -290 c37 -8 90 -26 118 -42
75 -40 161 -138 207 -235 l39 -82 -90 -135 c-101 -153 -133 -214 -192 -356
-48 -117 -58 -125 -162 -125 -225 0 -409 160 -459 400 -48 231 86 480 300 557
95 34 146 38 239 18z m5011 -28 c184 -92 297 -287 282 -488 -19 -263 -213
-458 -457 -459 -108 0 -118 5 -151 79 -89 195 -142 296 -205 392 -105 158
-100 137 -54 232 64 134 150 216 276 264 50 20 74 23 148 19 77 -3 98 -8 161
-39z"/>
<path d="M6655 5687 c-80 -59 -1076 -858 -1113 -892 -10 -9 -5 -21 23 -58 38
-49 58 -57 91 -32 31 23 39 18 52 -32 7 -27 32 -88 56 -138 l42 -90 -88 -42
c-69 -33 -88 -46 -88 -63 0 -24 37 -100 48 -100 12 0 197 76 587 240 551 232
740 317 743 333 4 17 -35 98 -51 109 -6 3 -34 -2 -61 -13 -28 -10 -54 -19 -58
-19 -5 0 -8 29 -8 64 0 141 -86 379 -170 470 l-42 45 29 25 c15 14 49 43 75
63 26 21 47 43 48 48 0 6 -19 32 -42 58 l-43 47 -30 -23z m-365 -584 c62 -102
52 -241 -26 -331 -82 -96 -230 -125 -347 -68 -57 28 -107 79 -107 109 0 9 21
32 46 51 l46 35 54 -45 c62 -50 97 -56 154 -26 39 21 80 89 80 134 0 35 -25
98 -39 98 -21 0 -10 23 28 61 53 53 70 51 111 -18z"/>
<path d="M3057 5647 l-39 -52 23 -15 c48 -31 102 -76 112 -91 8 -13 1 -31 -30
-80 -91 -144 -125 -236 -149 -403 -9 -61 -17 -112 -19 -114 -2 -2 -25 6 -52
17 -26 11 -54 22 -61 23 -16 4 -58 -120 -45 -132 4 -5 256 -114 558 -243 751
-321 742 -317 759 -317 14 0 66 86 66 109 0 5 -40 28 -90 52 -49 23 -90 46
-90 51 0 12 101 251 110 262 5 5 22 -1 39 -13 17 -12 35 -20 40 -17 5 3 25 28
44 55 l35 49 -511 409 c-624 499 -630 503 -648 503 -8 0 -31 -24 -52 -53z
m567 -529 l38 -34 -21 -39 c-51 -96 -4 -212 94 -231 38 -7 84 13 132 58 l31
30 51 -42 c28 -24 51 -46 51 -49 0 -4 -19 -26 -42 -48 -170 -166 -440 -92
-488 134 -16 71 1 147 47 217 41 61 41 61 107 4z"/>
<path d="M4633 4403 c-13 -2 -23 -7 -23 -11 0 -13 156 -216 207 -269 31 -34
57 -53 72 -53 15 0 43 21 78 57 62 63 213 249 213 262 0 5 -10 11 -22 15 -26
6 -490 6 -525 -1z"/>
<path d="M4802 3399 c-71 -12 -125 -41 -188 -101 -70 -66 -74 -81 -33 -124 18
-19 38 -34 44 -34 6 0 38 20 72 44 33 24 79 54 101 65 79 41 186 19 285 -58
71 -54 98 -60 126 -25 29 37 26 67 -11 109 -89 102 -245 151 -396 124z"/>
</g>
</svg>
